<svg width="1152" height="91" viewBox="0 0 1152 91" fill="none" xmlns="http://www.w3.org/2000/svg">
<path d="M0 72.625H12.6562L51.2109 9.05078H63.8672L101.719 72.625H116.953V82H71.8359V72.625H86.0156L77.5195 57.6836H36.4453L28.1836 72.625H41.7188V82H0V72.625ZM73.1836 12.0391L107.109 69.1094H104.414L70.4883 12.0391H73.1836ZM73.3008 50.3594L56.7188 21.2383L40.5469 50.3594H73.3008ZM57.7734 27.918L59.1797 30.4961L49.7461 46.8438H46.875L57.7734 27.918ZM38.7305 61.7852H76.9922L78.0469 64.0117H40.4883L37.7344 69.1094H34.7461L38.7305 61.7852ZM121.113 86.1016V75.8477H123.574V88.3281H74.3555V86.1016H121.113ZM45.9375 86.1016V75.8477H48.2812V88.3281H2.57812V86.1016H45.9375ZM131.836 72.625H148.242V18.4258H132.422V9.05078H177.832V18.4258H161.543V72.625H177.246V82H131.836V72.625ZM165.762 22.5273H181.992V11.9805H184.336V24.7539H168.105V69.1094H165.762V22.5273ZM135.938 22.5273H145.781V24.7539H135.938V22.5273ZM181.465 86.1016V75.9062H183.809V88.3281H135.352V86.1016H181.465ZM298.828 45.5547C298.828 42.3125 299.238 39.1094 300.059 35.9453C300.918 32.7812 302.188 29.7734 303.867 26.9219C305.586 24.0703 307.715 21.4336 310.254 19.0117C312.793 16.5508 315.762 14.4414 319.16 12.6836C322.559 10.8867 326.387 9.5 330.645 8.52344C334.941 7.50781 339.648 7 344.766 7C347.5 7 350.215 7.21484 352.91 7.64453C355.605 8.07422 358.184 8.67969 360.645 9.46094C363.145 10.2031 365.488 11.1211 367.676 12.2148C369.902 13.3086 371.875 14.5195 373.594 15.8477V9.05078H386.895V30.1445H373.594C372.344 28.1523 370.703 26.3164 368.672 24.6367C366.641 22.918 364.336 21.4531 361.758 20.2422C359.18 19.0312 356.367 18.0937 353.32 17.4297C350.273 16.7266 347.109 16.375 343.828 16.375C338.672 16.375 334.18 17.1953 330.352 18.8359C326.562 20.4766 323.418 22.6641 320.918 25.3984C318.418 28.0938 316.543 31.1992 315.293 34.7148C314.082 38.1914 313.477 41.8047 313.477 45.5547C313.477 49.7734 314.258 53.6602 315.82 57.2148C317.383 60.7305 319.551 63.7578 322.324 66.2969C325.137 68.8359 328.477 70.8281 332.344 72.2734C336.211 73.6797 340.469 74.3828 345.117 74.3828C349.336 74.3828 353.164 73.9727 356.602 73.1523C360.039 72.332 363.105 71.1602 365.801 69.6367C368.496 68.0742 370.82 66.1797 372.773 63.9531C374.766 61.7266 376.426 59.2266 377.754 56.4531L386.777 62.5469C383.145 69.5 377.832 74.7734 370.84 78.3672C363.887 81.9609 355.137 83.7578 344.59 83.7578C337.949 83.7578 331.836 82.7812 326.25 80.8281C320.664 78.875 315.84 76.1797 311.777 72.7422C307.715 69.3047 304.531 65.2617 302.227 60.6133C299.961 55.9648 298.828 50.9453 298.828 45.5547ZM377.109 34.2461H391.113V12.0391H393.457V36.4727H377.109V34.2461ZM317.695 45.4961C317.695 41.8633 318.34 38.5234 319.629 35.4766C320.918 32.4297 322.715 29.793 325.02 27.5664C327.363 25.3398 330.137 23.6016 333.34 22.3516C336.582 21.1016 340.156 20.4766 344.062 20.4766C349.18 20.4766 353.672 21.2773 357.539 22.8789C361.445 24.4414 364.57 26.6875 366.914 29.6172C363.516 27.2344 359.902 25.4961 356.074 24.4023C352.285 23.2695 348.203 22.7031 343.828 22.7031C340.117 22.7031 336.777 23.3086 333.809 24.5195C330.879 25.7305 328.379 27.3711 326.309 29.4414C324.277 31.4727 322.715 33.8555 321.621 36.5898C320.566 39.2852 320.039 42.1367 320.039 45.1445C320.039 48.0742 320.43 50.8086 321.211 53.3477C322.031 55.8477 323.301 58.1523 325.02 60.2617C326.777 62.3711 329.043 64.2852 331.816 66.0039C334.59 67.7227 337.969 69.2266 341.953 70.5156C338.281 70.0078 334.941 69.0508 331.934 67.6445C328.965 66.2383 326.426 64.4609 324.316 62.3125C322.207 60.1641 320.566 57.6836 319.395 54.8711C318.262 52.0195 317.695 48.8945 317.695 45.4961ZM313.125 79.1875C315 80.4766 317.168 81.6484 319.629 82.7031C322.129 83.7969 324.746 84.7148 327.48 85.457C330.254 86.2383 333.105 86.8242 336.035 87.2148C339.004 87.6445 341.895 87.8594 344.707 87.8594C349.707 87.8594 354.453 87.4297 358.945 86.5703C363.477 85.7109 367.617 84.4414 371.367 82.7617C375.156 81.1211 378.496 79.0898 381.387 76.668C384.277 74.207 386.602 71.4141 388.359 68.2891L390.41 69.5195C388.613 72.7617 386.23 75.6719 383.262 78.25C380.293 80.7891 376.836 82.9375 372.891 84.6953C368.984 86.4531 364.629 87.7812 359.824 88.6797C355.059 89.6172 349.98 90.0859 344.59 90.0859C341.504 90.0859 338.438 89.8516 335.391 89.3828C332.344 88.9531 329.434 88.2695 326.66 87.332C323.926 86.4336 321.387 85.3008 319.043 83.9336C316.738 82.6055 314.766 81.0234 313.125 79.1875ZM404.473 53.9336C404.473 50.3008 405.234 46.6875 406.758 43.0938C408.281 39.5 410.527 36.2773 413.496 33.4258C416.504 30.5352 420.215 28.1914 424.629 26.3945C429.043 24.5977 434.121 23.6992 439.863 23.6992C441.699 23.6992 443.652 23.8359 445.723 24.1094C447.832 24.3828 449.922 24.832 451.992 25.457C454.102 26.082 456.152 26.9219 458.145 27.9766C460.137 28.9922 461.953 30.2422 463.594 31.7266V25.457H488.789V35.418H475.898V73.2109H488.789V82H463.594V74.3828C462.07 75.9062 460.332 77.2539 458.379 78.4258C456.465 79.5977 454.414 80.5742 452.227 81.3555C450.078 82.1367 447.832 82.7227 445.488 83.1133C443.184 83.543 440.879 83.7578 438.574 83.7578C432.949 83.7578 428.008 82.957 423.75 81.3555C419.492 79.7539 415.938 77.6055 413.086 74.9102C410.234 72.1758 408.086 69.0117 406.641 65.418C405.195 61.7852 404.473 57.957 404.473 53.9336ZM480.117 39.5195H493.008V29.9102H495.352V41.7461H482.461V69.6953H480.117V39.5195ZM417.188 53.4648C417.188 56.707 417.754 59.6367 418.887 62.2539C420.059 64.8711 421.641 67.0977 423.633 68.9336C425.625 70.7695 427.988 72.1953 430.723 73.2109C433.457 74.2266 436.406 74.7344 439.57 74.7344C441.406 74.7344 443.262 74.5586 445.137 74.207C447.051 73.8164 448.887 73.25 450.645 72.5078C452.441 71.7266 454.121 70.7695 455.684 69.6367C457.285 68.4648 458.652 67.0977 459.785 65.5352C460.957 63.9336 461.875 62.1172 462.539 60.0859C463.242 58.0547 463.594 55.7891 463.594 53.2891C463.594 50.5156 462.949 47.8984 461.66 45.4375C460.371 42.9375 458.633 40.75 456.445 38.875C454.297 37 451.777 35.5156 448.887 34.4219C445.996 33.3281 442.949 32.7812 439.746 32.7812C436.543 32.7812 433.555 33.2695 430.781 34.2461C428.047 35.2227 425.664 36.6094 423.633 38.4062C421.641 40.2031 420.059 42.3906 418.887 44.9688C417.754 47.5078 417.188 50.3398 417.188 53.4648ZM421.23 53.7578C421.23 51.2969 421.68 49.0508 422.578 47.0195C423.516 44.9492 424.805 43.1719 426.445 41.6875C428.086 40.1641 430.039 38.9922 432.305 38.1719C434.57 37.3125 437.051 36.8828 439.746 36.8828C441.777 36.8828 443.613 37.1172 445.254 37.5859C446.895 38.0156 448.32 38.5625 449.531 39.2266C450.742 39.8516 451.738 40.5156 452.52 41.2188C453.301 41.8828 453.848 42.4688 454.16 42.9766C452.051 41.8047 449.883 40.8672 447.656 40.1641C445.43 39.4609 442.793 39.1094 439.746 39.1094C437.285 39.1094 435.059 39.5195 433.066 40.3398C431.113 41.1211 429.434 42.1953 428.027 43.5625C426.621 44.9297 425.527 46.5117 424.746 48.3086C424.004 50.1055 423.633 52 423.633 53.9922C423.633 55.8672 423.848 57.625 424.277 59.2656C424.707 60.9062 425.391 62.4297 426.328 63.8359C427.305 65.2031 428.555 66.4727 430.078 67.6445C431.641 68.7773 433.516 69.7734 435.703 70.6328C433.242 70.2031 431.094 69.4805 429.258 68.4648C427.461 67.4102 425.957 66.1406 424.746 64.6562C423.574 63.1719 422.695 61.5117 422.109 59.6758C421.523 57.8008 421.23 55.8281 421.23 53.7578ZM493.008 86.1016V76.4922H495.352V88.3281H467.109V86.1016H493.008ZM412.031 79.4805C413.633 80.7695 415.449 81.9219 417.48 82.9375C419.512 83.9922 421.68 84.8711 423.984 85.5742C426.289 86.3164 428.672 86.8828 431.133 87.2734C433.633 87.6641 436.133 87.8594 438.633 87.8594C442.969 87.8594 447.012 87.3125 450.762 86.2188C454.551 85.1641 457.91 83.6797 460.84 81.7656V84.4609C457.91 86.2188 454.512 87.5859 450.645 88.5625C446.816 89.5781 442.832 90.0859 438.691 90.0859C435.84 90.0859 433.047 89.8516 430.312 89.3828C427.578 88.9531 425.039 88.2891 422.695 87.3906C420.352 86.4922 418.262 85.3789 416.426 84.0508C414.59 82.7227 413.125 81.1992 412.031 79.4805ZM509.766 73.2109H522.656V9.05078H509.766V0.261719H535.254V73.2109H548.145V82H509.766V73.2109ZM539.355 3.25H541.699V69.6953H539.355V3.25ZM513.281 13.1523H520.195V15.3789H513.281V13.1523ZM552.363 86.1016V76.4922H554.707V88.3281H513.281V86.1016H552.363ZM565.605 54.8125C565.605 50.6719 566.484 46.7266 568.242 42.9766C570.039 39.2266 572.539 35.9258 575.742 33.0742C578.984 30.2227 582.871 27.957 587.402 26.2773C591.973 24.5586 597.012 23.6992 602.52 23.6992C607.129 23.6992 611.289 24.3242 615 25.5742C618.75 26.7852 622.207 28.5039 625.371 30.7305V25.5156H637.969V43.6797H625.957C624.863 42.3125 623.516 40.9844 621.914 39.6953C620.312 38.3672 618.496 37.1953 616.465 36.1797C614.473 35.1641 612.285 34.3438 609.902 33.7188C607.52 33.0938 605 32.7812 602.344 32.7812C598.945 32.7812 595.781 33.3281 592.852 34.4219C589.922 35.5156 587.383 37.0391 585.234 38.9922C583.086 40.9453 581.387 43.25 580.137 45.9062C578.926 48.5625 578.32 51.4531 578.32 54.5781C578.32 57.8203 578.965 60.6914 580.254 63.1914C581.582 65.6914 583.398 67.8008 585.703 69.5195C588.008 71.1992 590.742 72.4883 593.906 73.3867C597.07 74.2461 600.508 74.6758 604.219 74.6758C610.234 74.6758 615.547 73.7188 620.156 71.8047C624.805 69.8906 628.945 66.9414 632.578 62.957L638.789 70.0469C634.531 74.6172 629.59 78.0547 623.965 80.3594C618.34 82.625 611.855 83.7578 604.512 83.7578C598.34 83.7578 592.832 83.0742 587.988 81.707C583.184 80.3008 579.121 78.3281 575.801 75.7891C572.48 73.25 569.941 70.2031 568.184 66.6484C566.465 63.0938 565.605 59.1484 565.605 54.8125ZM628.828 47.7812H642.188V27.9766H644.531V50.0078H628.828V47.7812ZM582.539 54.5781C582.539 51.9609 583.047 49.5781 584.062 47.4297C585.078 45.2422 586.465 43.3672 588.223 41.8047C590.02 40.2422 592.129 39.0312 594.551 38.1719C596.973 37.3125 599.59 36.8828 602.402 36.8828C604.082 36.8828 605.781 37.0391 607.5 37.3516C609.219 37.6641 610.84 38.1133 612.363 38.6992C613.887 39.2461 615.254 39.9102 616.465 40.6914C617.676 41.4727 618.633 42.332 619.336 43.2695C616.992 42.0195 614.473 41.0234 611.777 40.2812C609.121 39.5 606.074 39.1094 602.637 39.1094C599.902 39.1094 597.441 39.5391 595.254 40.3984C593.066 41.2188 591.191 42.332 589.629 43.7383C588.105 45.1445 586.934 46.7852 586.113 48.6602C585.293 50.5352 584.883 52.5078 584.883 54.5781C584.883 56.6484 585.195 58.4844 585.82 60.0859C586.484 61.6484 587.422 63.0742 588.633 64.3633C589.844 65.6133 591.328 66.7266 593.086 67.7031C594.844 68.6406 596.836 69.5 599.062 70.2812C596.484 70.0469 594.16 69.5 592.09 68.6406C590.059 67.7812 588.34 66.6875 586.934 65.3594C585.527 63.9922 584.434 62.4102 583.652 60.6133C582.91 58.7773 582.539 56.7656 582.539 54.5781ZM573.984 79.3047C575.859 80.6719 577.949 81.8828 580.254 82.9375C582.559 84.0312 585.02 84.9297 587.637 85.6328C590.293 86.375 593.047 86.9414 595.898 87.332C598.75 87.7227 601.641 87.918 604.57 87.918C608.086 87.918 611.523 87.625 614.883 87.0391C618.281 86.4922 621.465 85.6914 624.434 84.6367C627.402 83.582 630.117 82.3125 632.578 80.8281C635.039 79.3047 637.129 77.6055 638.848 75.7305L640.547 77.2539C636.289 81.5898 631.113 84.8125 625.02 86.9219C618.965 89.0703 612.109 90.1445 604.453 90.1445C601.289 90.1445 598.145 89.9102 595.02 89.4414C591.895 88.9727 588.965 88.2695 586.23 87.332C583.496 86.4336 581.055 85.3008 578.906 83.9336C576.797 82.6055 575.156 81.0625 573.984 79.3047ZM666.738 68.875C665.957 66.8828 665.371 64.7148 664.98 62.3711C664.629 60.0273 664.453 57.4492 664.453 54.6367V35.418H654.492V25.457H677.051V49.6562C677.051 52.8203 677.188 55.6523 677.461 58.1523C677.773 60.6133 678.203 62.5469 678.75 63.9531C679.453 65.75 680.371 67.2734 681.504 68.5234C682.637 69.7734 683.906 70.7891 685.312 71.5703C686.758 72.3516 688.301 72.918 689.941 73.2695C691.621 73.6211 693.359 73.7969 695.156 73.7969C697.07 73.7969 699.043 73.4453 701.074 72.7422C703.145 72.0391 705.137 71.0625 707.051 69.8125C708.965 68.5625 710.742 67.0781 712.383 65.3594C714.062 63.6406 715.469 61.7852 716.602 59.793V35.418H703.711V25.457H729.199V73.2109H739.16V82H716.602V73.0938C715.352 74.6172 713.828 76.0234 712.031 77.3125C710.273 78.6016 708.301 79.7344 706.113 80.7109C703.965 81.6484 701.641 82.3906 699.141 82.9375C696.641 83.4844 694.043 83.7578 691.348 83.7578C685.527 83.7578 680.469 82.5469 676.172 80.125C671.914 77.6641 668.77 73.9141 666.738 68.875ZM733.301 28.4453H735.645V69.6953H733.301V28.4453ZM681.27 28.4453H683.613V52.5273C683.613 55.5742 683.906 58.1133 684.492 60.1445C685.078 62.1758 685.859 63.8359 686.836 65.125C687.812 66.4141 688.926 67.4102 690.176 68.1133C691.426 68.8164 692.715 69.3633 694.043 69.7539C689.941 69.7148 686.777 68.3672 684.551 65.7109C682.363 63.0156 681.27 58.8359 681.27 53.1719V28.4453ZM707.227 39.5195H714.141V41.7461H707.227V39.5195ZM658.008 39.5195H661.992V41.7461H658.008V39.5195ZM743.379 86.1016V76.4922H745.723V88.3281H720.117V86.1016H743.379ZM667.383 78.0742C670.43 81.3555 673.867 83.7969 677.695 85.3984C681.523 87.0391 686.094 87.8594 691.406 87.8594C696.133 87.8594 700.352 87.2344 704.062 85.9844C707.812 84.7734 711.211 83.1133 714.258 81.0039V83.6992C710.82 85.9258 707.246 87.5469 703.535 88.5625C699.824 89.5781 695.801 90.0859 691.465 90.0859C685.566 90.0859 680.547 89.0508 676.406 86.9805C672.266 84.9492 669.258 81.9805 667.383 78.0742ZM758.672 73.2109H771.562V9.05078H758.672V0.261719H784.16V73.2109H797.051V82H758.672V73.2109ZM788.262 3.25H790.605V69.6953H788.262V3.25ZM762.188 13.1523H769.102V15.3789H762.188V13.1523ZM801.27 86.1016V76.4922H803.613V88.3281H762.188V86.1016H801.27ZM814.512 53.9336C814.512 50.3008 815.273 46.6875 816.797 43.0938C818.32 39.5 820.566 36.2773 823.535 33.4258C826.543 30.5352 830.254 28.1914 834.668 26.3945C839.082 24.5977 844.16 23.6992 849.902 23.6992C851.738 23.6992 853.691 23.8359 855.762 24.1094C857.871 24.3828 859.961 24.832 862.031 25.457C864.141 26.082 866.191 26.9219 868.184 27.9766C870.176 28.9922 871.992 30.2422 873.633 31.7266V25.457H898.828V35.418H885.938V73.2109H898.828V82H873.633V74.3828C872.109 75.9062 870.371 77.2539 868.418 78.4258C866.504 79.5977 864.453 80.5742 862.266 81.3555C860.117 82.1367 857.871 82.7227 855.527 83.1133C853.223 83.543 850.918 83.7578 848.613 83.7578C842.988 83.7578 838.047 82.957 833.789 81.3555C829.531 79.7539 825.977 77.6055 823.125 74.9102C820.273 72.1758 818.125 69.0117 816.68 65.418C815.234 61.7852 814.512 57.957 814.512 53.9336ZM890.156 39.5195H903.047V29.9102H905.391V41.7461H892.5V69.6953H890.156V39.5195ZM827.227 53.4648C827.227 56.707 827.793 59.6367 828.926 62.2539C830.098 64.8711 831.68 67.0977 833.672 68.9336C835.664 70.7695 838.027 72.1953 840.762 73.2109C843.496 74.2266 846.445 74.7344 849.609 74.7344C851.445 74.7344 853.301 74.5586 855.176 74.207C857.09 73.8164 858.926 73.25 860.684 72.5078C862.48 71.7266 864.16 70.7695 865.723 69.6367C867.324 68.4648 868.691 67.0977 869.824 65.5352C870.996 63.9336 871.914 62.1172 872.578 60.0859C873.281 58.0547 873.633 55.7891 873.633 53.2891C873.633 50.5156 872.988 47.8984 871.699 45.4375C870.41 42.9375 868.672 40.75 866.484 38.875C864.336 37 861.816 35.5156 858.926 34.4219C856.035 33.3281 852.988 32.7812 849.785 32.7812C846.582 32.7812 843.594 33.2695 840.82 34.2461C838.086 35.2227 835.703 36.6094 833.672 38.4062C831.68 40.2031 830.098 42.3906 828.926 44.9688C827.793 47.5078 827.227 50.3398 827.227 53.4648ZM831.27 53.7578C831.27 51.2969 831.719 49.0508 832.617 47.0195C833.555 44.9492 834.844 43.1719 836.484 41.6875C838.125 40.1641 840.078 38.9922 842.344 38.1719C844.609 37.3125 847.09 36.8828 849.785 36.8828C851.816 36.8828 853.652 37.1172 855.293 37.5859C856.934 38.0156 858.359 38.5625 859.57 39.2266C860.781 39.8516 861.777 40.5156 862.559 41.2188C863.34 41.8828 863.887 42.4688 864.199 42.9766C862.09 41.8047 859.922 40.8672 857.695 40.1641C855.469 39.4609 852.832 39.1094 849.785 39.1094C847.324 39.1094 845.098 39.5195 843.105 40.3398C841.152 41.1211 839.473 42.1953 838.066 43.5625C836.66 44.9297 835.566 46.5117 834.785 48.3086C834.043 50.1055 833.672 52 833.672 53.9922C833.672 55.8672 833.887 57.625 834.316 59.2656C834.746 60.9062 835.43 62.4297 836.367 63.8359C837.344 65.2031 838.594 66.4727 840.117 67.6445C841.68 68.7773 843.555 69.7734 845.742 70.6328C843.281 70.2031 841.133 69.4805 839.297 68.4648C837.5 67.4102 835.996 66.1406 834.785 64.6562C833.613 63.1719 832.734 61.5117 832.148 59.6758C831.562 57.8008 831.27 55.8281 831.27 53.7578ZM903.047 86.1016V76.4922H905.391V88.3281H877.148V86.1016H903.047ZM822.07 79.4805C823.672 80.7695 825.488 81.9219 827.52 82.9375C829.551 83.9922 831.719 84.8711 834.023 85.5742C836.328 86.3164 838.711 86.8828 841.172 87.2734C843.672 87.6641 846.172 87.8594 848.672 87.8594C853.008 87.8594 857.051 87.3125 860.801 86.2188C864.59 85.1641 867.949 83.6797 870.879 81.7656V84.4609C867.949 86.2188 864.551 87.5859 860.684 88.5625C856.855 89.5781 852.871 90.0859 848.73 90.0859C845.879 90.0859 843.086 89.8516 840.352 89.3828C837.617 88.9531 835.078 88.2891 832.734 87.3906C830.391 86.4922 828.301 85.3789 826.465 84.0508C824.629 82.7227 823.164 81.1992 822.07 79.4805ZM930.293 35.418H917.402V25.457H930.293V13.6211L942.891 8.34766V25.457H972.012V35.418H942.891V63.3672C942.891 66.2969 943.809 68.4844 945.645 69.9297C947.48 71.3359 949.98 72.0391 953.145 72.0391H969.668V82H953.145C949.98 82 947.012 81.668 944.238 81.0039C941.465 80.3008 939.043 79.1484 936.973 77.5469C934.902 75.9062 933.262 73.7578 932.051 71.1016C930.879 68.4062 930.293 65.0469 930.293 61.0234V35.418ZM947.109 11.5703L949.453 10.5156V21.9414H947.109V11.5703ZM946.992 38.875H976.23V28.0938H978.574V41.1016H949.336V68.1133C948.008 67.7617 947.227 66.9805 946.992 65.7695V38.875ZM920.918 39.5195H927.949V41.7461H920.918V39.5195ZM929.941 76.9609C931.191 78.7188 932.578 80.1836 934.102 81.3555C935.664 82.5273 937.402 83.4648 939.316 84.168C941.23 84.8711 943.32 85.3594 945.586 85.6328C947.852 85.9453 950.332 86.1016 953.027 86.1016H973.887V74.6758H976.23V88.3281H952.734C949.727 88.3281 946.992 88.1328 944.531 87.7422C942.07 87.3516 939.883 86.707 937.969 85.8086C936.094 84.9492 934.473 83.7773 933.105 82.293C931.777 80.8477 930.723 79.0703 929.941 76.9609ZM991.113 54.6367C991.113 50.3789 992.031 46.375 993.867 42.625C995.703 38.8359 998.262 35.5547 1001.54 32.7812C1004.86 29.9688 1008.83 27.7617 1013.44 26.1602C1018.05 24.5195 1023.11 23.6992 1028.61 23.6992C1034.39 23.6992 1039.55 24.4805 1044.08 26.043C1048.65 27.5664 1052.5 29.6953 1055.62 32.4297C1058.79 35.1641 1061.19 38.4062 1062.83 42.1562C1064.51 45.9062 1065.35 49.9883 1065.35 54.4023C1065.35 58.6602 1064.43 62.5859 1062.6 66.1797C1060.8 69.7734 1058.22 72.8789 1054.86 75.4961C1051.54 78.0742 1047.54 80.1055 1042.85 81.5898C1038.2 83.0352 1033.01 83.7578 1027.27 83.7578C1021.84 83.7578 1016.89 82.957 1012.44 81.3555C1008.03 79.7148 1004.24 77.5469 1001.07 74.8516C997.91 72.1562 995.449 69.0703 993.691 65.5938C991.973 62.0781 991.113 58.4258 991.113 54.6367ZM1000.31 79.3047C1004.1 82.0391 1008.28 84.1484 1012.85 85.6328C1017.46 87.1172 1022.66 87.8594 1028.44 87.8594C1033.83 87.8594 1039 87.1172 1043.96 85.6328C1048.93 84.1875 1053.3 82.0391 1057.09 79.1875C1060.88 76.3359 1063.91 72.8398 1066.17 68.6992C1068.44 64.5195 1069.57 59.7539 1069.57 54.4023C1069.57 51.7852 1069.2 49.1484 1068.46 46.4922C1067.75 43.7969 1066.74 41.2188 1065.41 38.7578C1064.12 36.2969 1062.54 34.0117 1060.66 31.9023C1058.79 29.7539 1056.7 27.9375 1054.39 26.4531C1057.01 27.625 1059.39 29.168 1061.54 31.082C1063.73 32.9961 1065.59 35.1836 1067.11 37.6445C1068.63 40.0664 1069.8 42.7031 1070.62 45.5547C1071.48 48.4062 1071.91 51.3555 1071.91 54.4023C1071.91 58.2305 1071.37 61.7852 1070.27 65.0664C1069.18 68.3086 1067.66 71.2578 1065.7 73.9141C1063.79 76.5312 1061.48 78.8555 1058.79 80.8867C1056.13 82.918 1053.2 84.5977 1050 85.9258C1046.8 87.293 1043.38 88.3281 1039.75 89.0312C1036.15 89.7344 1032.48 90.0859 1028.73 90.0859C1025.61 90.0859 1022.62 89.832 1019.77 89.3242C1016.91 88.8555 1014.26 88.1523 1011.8 87.2148C1009.38 86.3164 1007.19 85.2031 1005.23 83.875C1003.28 82.5469 1001.64 81.0234 1000.31 79.3047ZM1004.12 54.4023C1004.12 57.4102 1004.69 60.1641 1005.82 62.6641C1006.99 65.125 1008.63 67.2539 1010.74 69.0508C1012.85 70.8086 1015.37 72.1758 1018.3 73.1523C1021.27 74.1289 1024.55 74.6172 1028.14 74.6172C1031.78 74.6172 1035.08 74.1289 1038.05 73.1523C1041.02 72.1367 1043.57 70.75 1045.72 68.9922C1047.87 67.1953 1049.53 65.0664 1050.7 62.6055C1051.88 60.1055 1052.46 57.3711 1052.46 54.4023C1052.46 51.4727 1051.88 48.7188 1050.7 46.1406C1049.53 43.5234 1047.89 41.2383 1045.78 39.2852C1043.67 37.293 1041.13 35.7305 1038.16 34.5977C1035.23 33.4258 1031.99 32.8398 1028.44 32.8398C1024.73 32.8398 1021.37 33.4062 1018.36 34.5391C1015.39 35.6328 1012.85 37.1562 1010.74 39.1094C1008.63 41.0234 1006.99 43.2891 1005.82 45.9062C1004.69 48.5234 1004.12 51.3555 1004.12 54.4023ZM1008.22 54.6367C1008.22 52.1758 1008.71 49.8711 1009.69 47.7227C1010.66 45.5352 1012.03 43.6602 1013.79 42.0977C1015.59 40.4961 1017.71 39.2461 1020.18 38.3477C1022.68 37.4102 1025.43 36.9414 1028.44 36.9414C1030.35 36.9414 1032.21 37.1562 1034 37.5859C1035.8 37.9766 1037.46 38.5625 1038.98 39.3438C1040.51 40.125 1041.86 41.082 1043.03 42.2148C1044.2 43.3086 1045.14 44.5586 1045.84 45.9648C1043.26 43.6211 1040.57 41.9023 1037.75 40.8086C1034.98 39.7148 1031.84 39.168 1028.32 39.168C1025.78 39.168 1023.44 39.5781 1021.29 40.3984C1019.14 41.2188 1017.27 42.332 1015.66 43.7383C1014.06 45.1445 1012.81 46.7852 1011.91 48.6602C1011.02 50.5352 1010.57 52.5273 1010.57 54.6367C1010.57 56.3945 1010.78 58.0352 1011.21 59.5586C1011.64 61.082 1012.36 62.5078 1013.38 63.8359C1014.43 65.125 1015.82 66.2969 1017.54 67.3516C1019.26 68.4062 1021.41 69.3438 1023.98 70.1641C1021.64 70.0078 1019.49 69.5195 1017.54 68.6992C1015.62 67.8398 1013.96 66.7266 1012.56 65.3594C1011.19 63.9922 1010.12 62.3906 1009.34 60.5547C1008.59 58.7188 1008.22 56.7461 1008.22 54.6367ZM1087.21 73.2109H1100.1V35.418H1087.21V25.457H1112.7V35.2422C1113.91 33.6797 1115.35 32.1953 1117.03 30.7891C1118.75 29.3828 1120.68 28.1523 1122.83 27.0977C1124.98 26.043 1127.32 25.2227 1129.86 24.6367C1132.4 24.0117 1135.12 23.6992 1138.01 23.6992C1138.87 23.6992 1139.94 23.7383 1141.23 23.8164C1142.52 23.8555 1143.75 23.9727 1144.92 24.168V35.6523C1143.55 35.3398 1142.21 35.125 1140.88 35.0078C1139.55 34.8906 1138.26 34.832 1137.01 34.832C1133.89 34.832 1130.92 35.3398 1128.11 36.3555C1125.33 37.332 1122.85 38.7773 1120.66 40.6914C1118.48 42.5664 1116.68 44.8711 1115.27 47.6055C1113.87 50.3398 1113.01 53.4648 1112.7 56.9805V73.2109H1133.79V82H1087.21V73.2109ZM1116.8 62.2539C1116.8 58.582 1117.27 55.3008 1118.2 52.4102C1119.14 49.5195 1120.47 47.0781 1122.19 45.0859C1123.95 43.0938 1126.07 41.5703 1128.57 40.5156C1131.07 39.4609 1133.89 38.9336 1137.01 38.9336C1137.68 38.9336 1138.52 38.9922 1139.53 39.1094C1140.55 39.1875 1141.6 39.3242 1142.7 39.5195C1143.83 39.7148 1144.96 39.9688 1146.09 40.2812C1147.23 40.5547 1148.24 40.8867 1149.14 41.2773V27.4492H1151.48V44.207C1150.39 43.7383 1149.2 43.3281 1147.91 42.9766C1146.66 42.5859 1145.37 42.2539 1144.04 41.9805C1142.75 41.707 1141.5 41.5117 1140.29 41.3945C1139.08 41.2383 1137.99 41.1602 1137.01 41.1602C1134.16 41.1602 1131.62 41.6289 1129.39 42.5664C1127.21 43.5039 1125.35 44.8516 1123.83 46.6094C1122.3 48.3672 1121.13 50.5156 1120.31 53.0547C1119.53 55.5938 1119.14 58.4648 1119.14 61.668V69.6953H1116.8V62.2539ZM1090.72 39.5195H1097.64V41.7461H1090.72V39.5195ZM1138.01 86.1016V76.4922H1140.35V88.3281H1090.72V86.1016H1138.01Z" fill="white"/>
<path d="M193.242 73.2109H203.906L229.629 53.6406L207.773 34.2461H194.355V25.457H232.559V34.2461H224.473L239.355 47.7227L256.289 34.2461H245.508V25.457H280.547V34.2461H271.875L245.742 54.0508L267.305 73.2109H281.133V82H242.051V73.2109H250.664L235.957 59.8516L219.727 73.2109H230.508V82H193.242V73.2109ZM274.16 38.3477H284.766V28.7383H287.109V40.5742H274.922L256.406 54.4023L273.75 69.6953H270.469L252.891 54.2852L274.16 38.3477ZM236.777 38.2305V28.7383H239.121V38.4062L242.93 41.8633L241.289 43.2695L235.723 38.2305H236.777ZM198.164 38.3477H208.828L211.289 40.5742H198.164V38.3477ZM237.598 64.4219L239.297 65.9453L234.727 69.6953H231.211L237.598 64.4219ZM285.352 86.1016V76.4922H287.695V88.3281H245.566V86.1016H285.352ZM234.727 86.1016V76.4922H237.07V88.3281H196.758V86.1016H234.727Z" fill="#FF0000"/>
</svg>
