<svg width="95" height="64" viewBox="0 0 95 64" fill="none" xmlns="http://www.w3.org/2000/svg">
<path d="M0.34375 48.2109H11.0078L36.7305 28.6406L14.875 9.24609H1.45703V0.457031H39.6602V9.24609H31.5742L46.457 22.7227L63.3906 9.24609H52.6094V0.457031H87.6484V9.24609H78.9766L52.8438 29.0508L74.4062 48.2109H88.2344V57H49.1523V48.2109H57.7656L43.0586 34.8516L26.8281 48.2109H37.6094V57H0.34375V48.2109ZM81.2617 13.3477H91.8672V3.73828H94.2109V15.5742H82.0234L63.5078 29.4023L80.8516 44.6953H77.5703L59.9922 29.2852L81.2617 13.3477ZM43.8789 13.2305V3.73828H46.2227V13.4062L50.0312 16.8633L48.3906 18.2695L42.8242 13.2305H43.8789ZM5.26562 13.3477H15.9297L18.3906 15.5742H5.26562V13.3477ZM44.6992 39.4219L46.3984 40.9453L41.8281 44.6953H38.3125L44.6992 39.4219ZM92.4531 61.1016V51.4922H94.7969V63.3281H52.668V61.1016H92.4531ZM41.8281 61.1016V51.4922H44.1719V63.3281H3.85938V61.1016H41.8281Z" fill="#FF0000"/>
</svg>
